<?xml version="1.0" encoding="utf-8"?>
<!-- Generator: Adobe Illustrator 27.5.0, SVG Export Plug-In . SVG Version: 6.00 Build 0)  -->
<svg version="1.2" baseProfile="tiny" id="Layer_1" xmlns="http://www.w3.org/2000/svg" xmlns:xlink="http://www.w3.org/1999/xlink"
	 x="0px" y="0px" viewBox="0 0 1854.5 295" overflow="visible" xml:space="preserve">
<path fill="#10213E" d="M14.6,151.6c0,0.1,0,0.2,0.1,0.3l0.7,0.7c0.1,0.1,0.2,0.1,0.3,0.1c0.1,0,0.2,0,0.3-0.1l5.8-5.8l5.8,5.8
	c0.1,0.1,0.2,0.1,0.3,0.1c0.1,0,0.2,0,0.3-0.1l0.7-0.7c0.1-0.1,0.1-0.2,0.1-0.3s0-0.2-0.1-0.3l-6.9-6.9c-0.1-0.1-0.2-0.1-0.3-0.1
	c-0.1,0-0.2,0-0.3,0.1l-6.9,6.9C14.4,151.4,14.3,151.5,14.6,151.6z"/>
</svg>
